<svg width="259" height="517" viewBox="0 0 259 517" fill="none" xmlns="http://www.w3.org/2000/svg">
<g filter="url(#filter0_b_203_478)">
<path d="M5 25C5 15.5719 5 10.8579 7.92893 7.92893C10.8579 5 15.5719 5 25 5H234C243.428 5 248.142 5 251.071 7.92893C254 10.8579 254 15.5719 254 25V492C254 501.428 254 506.142 251.071 509.071C248.142 512 243.428 512 234 512H25C15.5719 512 10.8579 512 7.92893 509.071C5 506.142 5 501.428 5 492V25Z" fill="#C3C3C3"/>
<path d="M5 46.3315C5 26.8477 5 17.1057 10.7577 11.0529C16.5153 5 25.7821 5 44.3158 5H214.684C233.218 5 242.485 5 248.242 11.0529C254 17.1057 254 26.8477 254 46.3315V470.668C254 490.152 254 499.894 248.242 505.947C242.485 512 233.218 512 214.684 512H44.3158C25.7821 512 16.5153 512 10.7577 505.947C5 499.894 5 490.152 5 470.668V46.3315Z" fill="#C3C3C3"/>
<path d="M234 2.5H215.277C215.147 2.5 215.017 2.5 214.886 2.5L214.684 2.5H44.3158L44.1136 2.5C43.9831 2.5 43.853 2.5 43.7233 2.5H25L24.8171 2.5C20.2585 2.49993 16.5841 2.49987 13.6942 2.88841C10.6938 3.2918 8.16755 4.15478 6.16117 6.16117C4.15478 8.16755 3.2918 10.6938 2.88841 13.6942C2.49987 16.5841 2.49993 20.2585 2.5 24.8171L2.5 25V45.7699C2.5 45.895 2.5 46.0205 2.5 46.1464L2.5 46.3315V470.668L2.5 470.854C2.5 470.979 2.5 471.105 2.5 471.23V492L2.5 492.183C2.49993 496.742 2.49987 500.416 2.88841 503.306C3.2918 506.306 4.15478 508.832 6.16117 510.839C8.16755 512.845 10.6938 513.708 13.6942 514.112C16.584 514.5 20.2584 514.5 24.8171 514.5H25H43.8173C43.9158 514.5 44.0145 514.5 44.1135 514.5H44.3158H214.684H214.887C214.985 514.5 215.084 514.5 215.183 514.5H234H234.183C238.742 514.5 242.416 514.5 245.306 514.112C248.306 513.708 250.832 512.845 252.839 510.839C254.845 508.832 255.708 506.306 256.112 503.306C256.5 500.416 256.5 496.742 256.5 492.183V492V471.172C256.5 471.066 256.5 470.96 256.5 470.853V470.668V46.3315V46.1466C256.5 46.04 256.5 45.9336 256.5 45.8275V25V24.8171C256.5 20.2584 256.5 16.584 256.112 13.6942C255.708 10.6938 254.845 8.16755 252.839 6.16117C250.832 4.15478 248.306 3.2918 245.306 2.88841C242.416 2.49987 238.742 2.49993 234.183 2.5L234 2.5Z" stroke="white" stroke-opacity="0.3" stroke-width="5"/>
</g>
<defs>
<filter id="filter0_b_203_478" x="-134" y="-134" width="527" height="785" filterUnits="userSpaceOnUse" color-interpolation-filters="sRGB">
<feFlood flood-opacity="0" result="BackgroundImageFix"/>
<feGaussianBlur in="BackgroundImageFix" stdDeviation="67"/>
<feComposite in2="SourceAlpha" operator="in" result="effect1_backgroundBlur_203_478"/>
<feBlend mode="normal" in="SourceGraphic" in2="effect1_backgroundBlur_203_478" result="shape"/>
</filter>
</defs>
</svg>
