<svg width="144" height="517" viewBox="0 0 144 517" fill="none" xmlns="http://www.w3.org/2000/svg">
<g style="mix-blend-mode:lighten" filter="url(#filter0_b_203_482)">
<path d="M5 25C5 15.5719 5 10.8579 7.92893 7.92893C10.8579 5 15.5719 5 25 5H119C128.428 5 133.142 5 136.071 7.92893C139 10.8579 139 15.5719 139 25V492C139 501.428 139 506.142 136.071 509.071C133.142 512 128.428 512 119 512H25C15.5719 512 10.8579 512 7.92893 509.071C5 506.142 5 501.428 5 492V25Z" fill="#C3C3C3"/>
<path d="M5 46.3315C5 26.8477 5 17.1057 8.0985 11.0529C11.197 5 16.184 5 26.1579 5H117.842C127.816 5 132.803 5 135.901 11.0529C139 17.1057 139 26.8477 139 46.3315V470.668C139 490.152 139 499.894 135.901 505.947C132.803 512 127.816 512 117.842 512H26.1579C16.184 512 11.197 512 8.0985 505.947C5 499.894 5 490.152 5 470.668V46.3315Z" fill="#C3C3C3"/>
<path d="M117.842 2.5H26.1579C26.0533 2.5 25.9491 2.49999 25.8452 2.49998C25.6386 2.49996 25.4334 2.49995 25.2296 2.5H25L24.8171 2.5C20.2585 2.49993 16.5841 2.49987 13.6942 2.88841C10.6938 3.2918 8.16755 4.15478 6.16117 6.16117C4.15478 8.16755 3.2918 10.6938 2.88841 13.6942C2.49987 16.5841 2.49993 20.2585 2.5 24.8171L2.5 25V46.0496C2.5 46.109 2.5 46.1686 2.5 46.2282V46.3315V470.668V470.772C2.5 470.831 2.5 470.891 2.5 470.95V492L2.5 492.183C2.49993 496.742 2.49987 500.416 2.88841 503.306C3.2918 506.306 4.15478 508.832 6.16117 510.839C8.16755 512.845 10.6938 513.708 13.6942 514.112C16.584 514.5 20.2584 514.5 24.8171 514.5H25C25.0988 514.5 25.198 514.5 25.2975 514.5C25.479 514.5 25.6615 514.5 25.8451 514.5H26.1579H117.842H118.155C118.339 514.5 118.521 514.5 118.702 514.5C118.802 514.5 118.901 514.5 119 514.5H119.183C123.742 514.5 127.416 514.5 130.306 514.112C133.306 513.708 135.832 512.845 137.839 510.839C139.845 508.832 140.708 506.306 141.112 503.306C141.5 500.416 141.5 496.742 141.5 492.183V492V470.775C141.5 470.774 141.5 470.772 141.5 470.771V470.668V46.3315V46.2287C141.5 46.2276 141.5 46.2264 141.5 46.2253V25V24.8171C141.5 20.2584 141.5 16.584 141.112 13.6942C140.708 10.6938 139.845 8.16755 137.839 6.16117C135.832 4.15478 133.306 3.2918 130.306 2.88841C127.416 2.49987 123.742 2.49993 119.183 2.5L119 2.5H118.771C118.567 2.49995 118.361 2.49996 118.155 2.49998L117.842 2.5Z" stroke="white" stroke-opacity="0.3" stroke-width="5"/>
</g>
<defs>
<filter id="filter0_b_203_482" x="-134" y="-134" width="412" height="785" filterUnits="userSpaceOnUse" color-interpolation-filters="sRGB">
<feFlood flood-opacity="0" result="BackgroundImageFix"/>
<feGaussianBlur in="BackgroundImageFix" stdDeviation="67"/>
<feComposite in2="SourceAlpha" operator="in" result="effect1_backgroundBlur_203_482"/>
<feBlend mode="normal" in="SourceGraphic" in2="effect1_backgroundBlur_203_482" result="shape"/>
</filter>
</defs>
</svg>
