<svg width="256" height="517" viewBox="0 0 256 517" fill="none" xmlns="http://www.w3.org/2000/svg">
<g filter="url(#filter0_b_203_481)">
<path d="M5 25C5 15.5719 5 10.8579 7.92893 7.92893C10.8579 5 15.5719 5 25 5H231C240.428 5 245.142 5 248.071 7.92893C251 10.8579 251 15.5719 251 25V492C251 501.428 251 506.142 248.071 509.071C245.142 512 240.428 512 231 512H25C15.5719 512 10.8579 512 7.92893 509.071C5 506.142 5 501.428 5 492V25Z" fill="#C3C3C3"/>
<path d="M5 46.3315C5 26.8477 5 17.1057 10.6883 11.0529C16.3766 5 25.5318 5 43.8421 5H212.158C230.468 5 239.623 5 245.312 11.0529C251 17.1057 251 26.8477 251 46.3315V470.668C251 490.152 251 499.894 245.312 505.947C239.623 512 230.468 512 212.158 512H43.8421C25.5318 512 16.3766 512 10.6883 505.947C5 499.894 5 490.152 5 470.668V46.3315Z" fill="#C3C3C3"/>
<path d="M231 2.5H212.754C212.624 2.5 212.493 2.5 212.362 2.5L212.158 2.5H43.8421L43.6379 2.5C43.5067 2.5 43.376 2.5 43.2457 2.5H25L24.8171 2.5C20.2585 2.49993 16.5841 2.49987 13.6942 2.88841C10.6938 3.2918 8.16755 4.15478 6.16117 6.16117C4.15478 8.16755 3.2918 10.6938 2.88841 13.6942C2.49987 16.5841 2.49993 20.2585 2.5 24.8171L2.5 25V45.7735C2.5 45.8981 2.5 46.0231 2.5 46.1484L2.5 46.3315V470.668L2.5 470.852C2.5 470.977 2.5 471.102 2.5 471.226V492L2.5 492.183C2.49993 496.742 2.49987 500.416 2.88841 503.306C3.2918 506.306 4.15478 508.832 6.16117 510.839C8.16755 512.845 10.6938 513.708 13.6942 514.112C16.584 514.5 20.2584 514.5 24.8171 514.5H25H43.3449C43.4422 514.5 43.5396 514.5 43.6374 514.5H43.8421H212.158H212.363C212.46 514.5 212.558 514.5 212.655 514.5H231H231.183C235.742 514.5 239.416 514.5 242.306 514.112C245.306 513.708 247.832 512.845 249.839 510.839C251.845 508.832 252.708 506.306 253.112 503.306C253.5 500.416 253.5 496.742 253.5 492.183V492V471.172C253.5 471.065 253.5 470.959 253.5 470.852V470.668V46.3315V46.1484C253.5 46.0414 253.5 45.9346 253.5 45.8282V25V24.8171C253.5 20.2584 253.5 16.584 253.112 13.6942C252.708 10.6938 251.845 8.16755 249.839 6.16117C247.832 4.15478 245.306 3.2918 242.306 2.88841C239.416 2.49987 235.742 2.49993 231.183 2.5L231 2.5Z" stroke="white" stroke-opacity="0.3" stroke-width="5"/>
</g>
<defs>
<filter id="filter0_b_203_481" x="-134" y="-134" width="524" height="785" filterUnits="userSpaceOnUse" color-interpolation-filters="sRGB">
<feFlood flood-opacity="0" result="BackgroundImageFix"/>
<feGaussianBlur in="BackgroundImageFix" stdDeviation="67"/>
<feComposite in2="SourceAlpha" operator="in" result="effect1_backgroundBlur_203_481"/>
<feBlend mode="normal" in="SourceGraphic" in2="effect1_backgroundBlur_203_481" result="shape"/>
</filter>
</defs>
</svg>
