<svg width="24" height="26" viewBox="0 0 24 26" fill="none" xmlns="http://www.w3.org/2000/svg">
<g clip-path="url(#clip0_203_392)">
<path d="M12.0048 7.29263C8.79812 7.29263 6.21156 9.83877 6.21156 12.9954C6.21156 16.152 8.79812 18.6981 12.0048 18.6981C15.2116 18.6981 17.7981 16.152 17.7981 12.9954C17.7981 9.83877 15.2116 7.29263 12.0048 7.29263ZM12.0048 16.7029C9.93257 16.7029 8.23845 15.0402 8.23845 12.9954C8.23845 10.9505 9.92753 9.28785 12.0048 9.28785C14.0821 9.28785 15.7712 10.9505 15.7712 12.9954C15.7712 15.0402 14.0771 16.7029 12.0048 16.7029ZM19.3863 7.05936C19.3863 7.79888 18.7813 8.38951 18.0351 8.38951C17.2838 8.38951 16.6838 7.79392 16.6838 7.05936C16.6838 6.3248 17.2889 5.72921 18.0351 5.72921C18.7813 5.72921 19.3863 6.3248 19.3863 7.05936ZM23.2233 8.40936C23.1376 6.62756 22.7242 5.04925 21.3981 3.74888C20.0771 2.44852 18.4737 2.04153 16.6637 1.95219C14.7981 1.84797 9.20652 1.84797 7.34097 1.95219C5.53593 2.03657 3.93257 2.44355 2.60652 3.74392C1.28048 5.04429 0.872072 6.6226 0.781316 8.4044C0.675434 10.2408 0.675434 15.745 0.781316 17.5814C0.86703 19.3632 1.28048 20.9415 2.60652 22.2419C3.93257 23.5423 5.53089 23.9492 7.34097 24.0386C9.20652 24.1428 14.7981 24.1428 16.6637 24.0386C18.4737 23.9542 20.0771 23.5472 21.3981 22.2419C22.7191 20.9415 23.1326 19.3632 23.2233 17.5814C23.3292 15.745 23.3292 10.2458 23.2233 8.40936ZM20.8132 19.5518C20.42 20.5246 19.6586 21.2741 18.6653 21.6662C17.1779 22.2469 13.6485 22.1128 12.0048 22.1128C10.3611 22.1128 6.82669 22.2419 5.34434 21.6662C4.3561 21.279 3.59476 20.5296 3.19644 19.5518C2.60652 18.0877 2.74266 14.6134 2.74266 12.9954C2.74266 11.3774 2.61157 7.89815 3.19644 6.43896C3.58972 5.46616 4.35106 4.71671 5.34434 4.32462C6.83173 3.74392 10.3611 3.87793 12.0048 3.87793C13.6485 3.87793 17.183 3.74888 18.6653 4.32462C19.6536 4.71175 20.4149 5.4612 20.8132 6.43896C21.4031 7.90311 21.267 11.3774 21.267 12.9954C21.267 14.6134 21.4031 18.0926 20.8132 19.5518Z" fill="white"/>
</g>
<defs>
<clipPath id="clip0_203_392">
<rect width="22.5882" height="25.4118" fill="white" transform="translate(0.706055 0.293945)"/>
</clipPath>
</defs>
</svg>
