<svg width="24" height="22" viewBox="0 0 24 22" fill="none" xmlns="http://www.w3.org/2000/svg">
<g clip-path="url(#clip0_203_388)">
<path d="M5.83456 21.8825V7.5948H0.991776V21.8825H5.83456ZM3.41379 5.64288C5.10255 5.64288 6.15373 4.54575 6.15373 3.1747C6.12226 1.77273 5.10262 0.706055 3.44584 0.706055C1.78932 0.706055 0.706055 1.77276 0.706055 3.1747C0.706055 4.54581 1.75697 5.64288 3.38218 5.64288H3.41379ZM8.51502 21.8825H13.3578V13.9036C13.3578 13.4765 13.3893 13.05 13.5171 12.7447C13.8672 11.8915 14.6641 11.0079 16.0019 11.0079C17.7543 11.0079 18.4553 12.3181 18.4553 14.2388V21.8824H23.2978V13.69C23.2978 9.30135 20.9086 7.25937 17.7224 7.25937C15.1099 7.25937 13.9628 8.69136 13.3256 9.66669H13.3579V7.59451H8.51513C8.57868 8.93519 8.51502 21.8825 8.51502 21.8825Z" fill="white"/>
</g>
<defs>
<clipPath id="clip0_203_388">
<rect width="22.5882" height="21.1765" fill="white" transform="translate(0.706055 0.706055)"/>
</clipPath>
</defs>
</svg>
