<svg width="26" height="20" viewBox="0 0 26 20" fill="none" xmlns="http://www.w3.org/2000/svg">
<g clip-path="url(#clip0_203_384)">
<path d="M25.7057 2.52335C24.7541 2.92496 23.7448 3.18858 22.7113 3.30543C23.7878 2.69074 24.6144 1.71735 25.0036 0.557571C23.9802 1.13612 22.8606 1.54375 21.693 1.76284C20.742 0.797585 19.3871 0.194336 17.8875 0.194336C15.0082 0.194336 12.6738 2.4182 12.6738 5.16104C12.6738 5.55038 12.72 5.92941 12.8088 6.29302C8.47594 6.08582 4.63439 4.1085 2.06294 1.10351C1.61427 1.83708 1.35717 2.69036 1.35717 3.60048C1.35717 5.3237 2.27765 6.84388 3.67649 7.73462C2.84857 7.70991 2.03887 7.49688 1.31498 7.1133C1.31468 7.13411 1.31468 7.15491 1.31468 7.17581C1.31468 9.58228 3.11177 11.5898 5.49671 12.0461C4.72898 12.245 3.92369 12.2741 3.14235 12.1312C3.80573 14.1044 5.73117 15.5403 8.01247 15.5805C6.22819 16.9126 3.98014 17.7067 1.53763 17.7067C1.11675 17.7067 0.701824 17.6832 0.293945 17.6373C2.60115 19.0465 5.34156 19.8688 8.28575 19.8688C17.8754 19.8688 23.1193 12.3004 23.1193 5.73706C23.1193 5.52163 23.1143 5.30744 23.1042 5.09447C24.1249 4.39153 25.0058 3.52087 25.7057 2.52335" fill="white"/>
</g>
<defs>
<clipPath id="clip0_203_384">
<rect width="25.4118" height="19.7647" fill="white" transform="translate(0.293945 0.117188)"/>
</clipPath>
</defs>
</svg>
